<?xml version="1.0" encoding="iso-8859-1"?>
<!-- Generator: Adobe Illustrator 19.0.0, SVG Export Plug-In . SVG Version: 6.00 Build 0)  -->
<svg version="1.1" id="Layer_1" xmlns="http://www.w3.org/2000/svg" xmlns:xlink="http://www.w3.org/1999/xlink" x="0px" y="0px"
	 viewBox="0 0 512.1 512.1" style="enable-background:new 0 0 512.1 512.1;" xml:space="preserve">
<g>
	<g>
		<path d="M207.454,0c-50.752,0-91.876,41.128-91.876,91.872c0,50.74,41.124,91.872,91.876,91.872
			c50.748,0,91.88-41.132,91.88-91.872C299.33,41.128,258.198,0,207.454,0z M259.202,104.096H220.37v39.612
			c0,6.576-5.428,11.92-12,11.92s-12-5.348-12-11.92v-39.612h-40.836c-6.584,0-11.928-5.424-11.928-12s5.348-12,11.928-12h40.836
			V40.028c0-6.572,5.428-11.92,12-11.92s12,5.352,12,11.92v40.068h38.832c6.576,0,11.928,5.424,11.928,12
			S265.778,104.096,259.202,104.096z"/>
	</g>
</g>
<g>
	<g>
		<path d="M450.73,236.096h-14.7c-10.328-32-31.66-63.456-55.66-86.832V76.336c0-2.212-2.312-4-4.516-4
			c-21.272,0-40.448,10.188-52.468,25.912c-3.316,60.924-54.064,109.48-115.804,109.48c-36.78,0-69.656-17.252-90.9-44.072
			c-8.064,8.728-15.36,18.196-21.684,28.312c-0.232,0.288-0.504,0.536-0.716,0.844c-3.532,5.224-9.392,8.34-15.672,8.34
			c-10.416,0-18.892-8.472-18.892-18.888c0-8.1,5.148-15.288,12.804-17.892c6.28-2.124,9.632-8.936,7.5-15.208
			c-2.12-6.268-8.928-9.628-15.208-7.5c-17.392,5.908-29.084,22.22-29.084,40.596c0,23.612,19.188,42.82,42.788,42.864
			c-7.864,20.752-12.856,43.232-12.856,66.708c0.004,59.096,26.708,115.384,74.708,150.996v44.236
			c0,13.54,12.328,25.036,25.868,25.036h17.132c13.54,0,25-11.496,25-25.036v-12.288c32,8.028,64,8.028,92,0v12.288
			c0,13.54,13.348,25.036,26.884,25.036h17.128c13.536,0,23.988-11.496,23.988-25.036v-44.236c32-23.98,56.076-58.732,67.66-94.732
			h14.7c13.536,0,25.64-12.036,25.64-25.576v-61.372C476.37,247.608,464.266,236.096,450.73,236.096z M333.422,259.728
			c-14.292,0-25.88-11.588-25.88-25.884s11.584-25.884,25.88-25.884s25.888,11.588,25.888,25.884S347.714,259.728,333.422,259.728z"
			/>
	</g>
</g>
<g>
</g>
<g>
</g>
<g>
</g>
<g>
</g>
<g>
</g>
<g>
</g>
<g>
</g>
<g>
</g>
<g>
</g>
<g>
</g>
<g>
</g>
<g>
</g>
<g>
</g>
<g>
</g>
<g>
</g>
</svg>
